# AST/ASF file generated using VICON BodyLanguage
# -----------------------------------------------
:version 1.10
:name VICON
:units
  mass 1.0
  length 0.45
  angle deg
:documentation
   .ast/.asf automatically generated from VICON data using
   VICON BodyBuilder and BodyLanguage model FoxedUp or BRILLIANT.MOD
:root
   order TX TY TZ RX RY RZ
   axis XYZ
   position 0 0 0  
   orientation 0 0 0 
:bonedata
  begin
     id 1 
     name lhipjoint
     direction 0.64773 -0.699417 0.302095 
     length 2.48597 
     axis 0 0 0  XYZ
  end
  begin
     id 2 
     name lfemur
     direction 0.34202 -0.939693 0  
     length 6.71947  
     axis 0 0 20  XYZ
    dof rx ry rz
    limits (-160.0 20.0)
           (-70.0 70.0)
           (-60.0 70.0)
  end
  begin
     id 3 
     name ltibia
     direction 0.34202 -0.939693 0   
     length 8.08777   
     axis 0 0 20   XYZ
    dof rx
    limits (-10.0 170.0)
  end
  begin
     id 4 
     name lfoot
     direction 0.0808503 -0.222134 0.971658   
     length 2.08264   
     axis -90 7.62852e-016 20   XYZ
    dof rx rz
    limits (-45.0 90.0)
           (-70.0 20.0)
  end
  begin
     id 5 
     name ltoes
     direction 1.53502e-011 -4.22007e-011 1   
     length 1.04662   
     axis -90 7.62852e-016 20   XYZ
    dof rx
    limits (-90.0 20.0)
  end
  begin
     id 6 
     name rhipjoint
     direction -0.610924 -0.726792 0.313919   
     length 2.39233  
     axis 0 0 0  XYZ 
  end
  begin
     id 7 
     name rfemur
     direction -0.34202 -0.939693 0   
     length 6.96955   
     axis 0 0 -20   XYZ
    dof rx ry rz
    limits (-160.0 20.0)
           (-70.0 70.0)
           (-70.0 60.0)
  end
  begin
     id 8 
     name rtibia
     direction -0.34202 -0.939693 0   
     length 8.19584   
     axis 0 0 -20   XYZ
    dof rx
    limits (-10.0 170.0)
 end
 begin
     id 9 
     name rfoot
     direction -0.077777 -0.213691 0.9738   
     length 2.07539  
     axis -90 -7.62852e-016 -20   XYZ
    dof rx rz
    limits (-45.0 90.0)
           (-20.0 70.0)
  end
  begin
     id 10 
     name rtoes
     direction -1.53558e-011 -4.22006e-011 1   
     length 1.04381   
     axis -90 -7.62852e-016 -20   XYZ
    dof rx
    limits (-90.0 20.0)
  end
  begin
     id 11 
     name lowerback
     direction -0.00971646 0.996074 0.0879841   
     length 1.67643   
     axis 0 0 0   XYZ
    dof rx ry rz
    limits (-20.0 45.0)
           (-30.0 30.0)
           (-30.0 30.0)
  end
  begin
     id 12 
     name upperback
     direction 0.0127391 0.991676 0.128127   
     length 1.63741   
     axis 0 0 0   XYZ
    dof rx ry rz
    limits (-20.0 45.0)
           (-30.0 30.0)
           (-30.0 30.0)
  end
  begin
     id 13 
     name thorax
     direction 0.0167583 0.996049 0.0872067   
     length 1.65931   
     axis 0 0 0   XYZ
    dof rx ry rz
    limits (-20.0 45.0)
           (-30.0 30.0)
           (-30.0 30.0)
  end
  begin
     id 14 
     name lowerneck
     direction -0.0317829 0.998312 0.0486079   
     length 1.79021   
     axis 0 0 0   XYZ
    dof rx ry rz
    limits (-20.0 45.0)
           (-30.0 30.0)
           (-30.0 30.0)
  end
  begin
     id 15 
     name upperneck
     direction 0.0896851 0.972452 -0.215159   
     length 1.78797   
     axis 0 0 0   XYZ
    dof rx ry rz
    limits (-20.0 45.0)
           (-30.0 30.0)
           (-30.0 30.0)
  end
  begin
     id 16
     name head
     direction 0.0310949 0.996503 -0.0775582  
     length 1.81549  
     axis 0 0 0   XYZ
    dof rx ry rz
    limits (-20.0 45.0)
           (-30.0 30.0)
           (-30.0 30.0)
  end
  begin
     id 17 
     name lclavicle
     direction 0.853638 0.502051 -0.138733  
     length 3.31627  
     axis 0 0 0   XYZ
    dof ry rz
    limits (-20.0 10.0)
           (0.0 20.0)
  end
  begin
     id 18 
     name lhumerus
     direction 1 -4.48962e-011 -1.41788e-018   
     length 5.54893   
     axis 180 -30 -90   XYZ
    dof rx ry rz
    limits (-60.0 90.0)
           (-90.0 90.0)
           (-90.0 90.0)
  end
  begin
     id 19
     name lradius
     direction 1 -4.48962e-011 -4.95754e-027   
     length 3.02898   
     axis 180 -30 -90   XYZ
    dof rx
    limits (-10.0 170.0)
  end
  begin
     id 20
     name lwrist
     direction 1 -4.48952e-011 -1.03764e-026   
     length 1.51449   
     axis 9.09556e-015 90 90   XYZ
    dof ry
    limits (-180.0 0.0)
 end
  begin
     id 21 
     name lhand
     direction 1 -4.4902e-011 -2.07528e-026   
     length 0.640951   
     axis 1.3242e-014 90 90   XYZ
    dof rx rz
    limits (-90.0 90.0)
           (-45.0 45.0)
  end
  begin
     id 22 
     name lfingers
     direction 1 -4.49014e-011 -4.15056e-026   
     length 0.516751   
     axis 2.64841e-014 90 90   XYZ
    dof rx
    limits (0.0 90.0)
  end
  begin
     id 23
     name lthumb
     direction 0.707107 -6.35008e-011 0.707107   
     length 0.741954   
     axis -90 45 2.85299e-015   XYZ
    dof rx rz
    limits (-45.0 45.0)
           (-45.0 45.0)
  end
  begin
     id 24 
     name rclavicle
     direction -0.888531 0.455324 -0.0565039   
     length 3.20126  
     axis 0 0 0   XYZ 
    dof ry rz
    limits (-10.0 20.0)
           (-20.0 0.0)
  end
  begin
     id 25 
     name rhumerus
     direction -1 -4.48946e-011 -8.98298e-028  
     length 5.3519   
     axis 180 30 90   XYZ
    dof rx ry rz
    limits (-90.0 60.0)
           (-90.0 90.0)
           (-90.0 90.0)
  end
  begin
     id 26 
     name rradius
     direction -1 -4.4899e-011 -3.18779e-027   
     length 3.02531   
     axis 180 30 90   XYZ
    dof rx
    limits (-10.0 170.0)
  end
  begin
     id 27 
     name rwrist
     direction -1 -4.4897e-011 -1.03764e-026   
     length 1.51266   
     axis 9.09556e-015 -90 -90   XYZ
    dof ry
    limits (-180.0 0.0)
  end
  begin
     id 28
     name rhand
     direction -1 -4.48941e-011 -2.07528e-026   
     length 0.78389   
     axis 1.3242e-014 -90 -90   XYZ
    dof rx rz
    limits (-90.0 90.0)
           (-45.0 45.0)
  end
  begin
     id 29
     name rfingers
     direction -1 -4.49012e-011 -4.15056e-026   
     length 0.631992   
     axis 2.64841e-014 -90 -90   XYZ
    dof rx
    limits (0.0 90.0)
  end
  begin
     id 30
     name rthumb
     direction -0.707107 -6.3496e-011 0.707107   
     length 0.907418   
     axis -90 -45 -2.85299e-015   XYZ
    dof rx rz
    limits (-45.0 45.0)
           (-45.0 45.0)
  end
:hierarchy
  begin
    root lhipjoint rhipjoint lowerback
    lhipjoint lfemur
    lfemur ltibia
    ltibia lfoot
    lfoot ltoes
    rhipjoint rfemur
    rfemur rtibia
    rtibia rfoot
    rfoot rtoes
    lowerback upperback
    upperback thorax
    thorax lowerneck lclavicle rclavicle
    lowerneck upperneck
    upperneck head
    lclavicle lhumerus
    lhumerus lradius
    lradius lwrist
    lwrist lhand lthumb
    lhand lfingers
    rclavicle rhumerus
    rhumerus rradius
    rradius rwrist
    rwrist rhand rthumb
    rhand rfingers
  end

#!OML:ASF E:\Style3\Style3.ASF
:FULLY-SPECIFIED
:DEGREES
2262
root -1.07211 17.6614 2.26054 -143.88 96.0881 -177.499
lowerback 13.8342 -4.48315 1.88357
upperback 0.367054 -5.29677 3.52307
thorax -7.18996 -2.54617 3.72815
lowerneck -3.23441 5.6172 0.0249311
upperneck 0.374257 7.56751 -4.42947
head 0.835212 3.7439 -1.23444
rclavicle -3.33958e-014 4.01545e-014
rhumerus 15.4643 3.98074 -86.4019
rradius 131.814
rwrist 26.3456
rhand 13.3591 -0.144807
rfingers 7.12502
rthumb 38.3049 -25.8604
lclavicle -3.33958e-014 4.01545e-014
lhumerus 11.6642 -14.5928 93.4685
lradius 123.847
lwrist 2.61375
lhand -8.32517 28.6457
lfingers 7.12502
lthumb 17.5959 57.8695
rfemur -52.629 8.39227 8.86636
rtibia 27.2955
rfoot -7.34601 -9.50453
rtoes -24.7753
lfemur -47.2979 2.97215 -7.22668
ltibia 28.7845
lfoot 0.215279 21.2594
ltoes -28.6339
2263
root -1.08252 17.6422 2.24363 -145.713 95.3895 -179.398
lowerback 14.4078 -4.33101 1.70371
upperback 0.00400478 -5.08829 3.59748
thorax -7.88868 -2.42538 3.94569
lowerneck -3.02595 5.59882 -0.177432
upperneck 0.470842 7.54417 -4.16093
head 0.808842 3.73421 -1.12301
rclavicle 2.5842e-014 -1.98785e-014
rhumerus 14.8593 3.8178 -86.1364
rradius 131.455
rwrist 26.2834
rhand 13.7233 0.0870139
rfingers 7.12502
rthumb 38.6486 -25.5328
lclavicle 2.5842e-014 -1.98785e-014
lhumerus 10.6016 -14.7247 93.9286
lradius 123.911
lwrist 1.31702
lhand -7.02412 28.8621
lfingers 7.12502
lthumb 18.8476 57.9689
rfemur -52.8867 8.13845 9.20416
rtibia 27.8128
rfoot -7.63507 -9.5951
rtoes -24.4052
lfemur -47.6078 2.72691 -6.89922
ltibia 28.7912
lfoot 0.404237 21.2208
ltoes -30.101
2264
root -1.09306 17.6121 2.22466 -148.756 94.7123 -182.486
lowerback 14.0441 -4.22344 1.79804
upperback 0.208347 -4.96624 3.40763
thorax -7.49505 -2.38082 3.61798
lowerneck -2.69542 5.57098 -0.0531063
upperneck -0.097743 7.47577 -3.88122
head 0.567946 3.71634 -1.07687
rclavicle -8.74653e-014 -1.98785e-016
rhumerus 14.9625 3.57285 -86.3228
rradius 131.044
rwrist 26.4625
rhand 14.0684 0.383288
rfingers 7.12502
rthumb 38.974 -25.1442
lclavicle -8.74653e-014 -1.98785e-016
lhumerus 10.3895 -14.9638 93.6756
lradius 124.05
lwrist 0.261107
lhand -5.51497 29.6522
lfingers 7.12502
lthumb 20.2986 58.6115
rfemur -53.0925 7.96218 9.55089
rtibia 28.2396
rfoot -7.82087 -9.74194
rtoes -24.1268
lfemur -47.9143 2.56858 -6.59288
ltibia 28.872
lfoot 0.841856 21.0532
ltoes -32.4385
2265
root -1.10381 17.5927 2.20748 -152.6 94.1058 -186.344
lowerback 14.402 -4.07774 1.61534
upperback 0.0815147 -4.78837 3.38869
thorax -7.8263 -2.28254 3.70389
lowerneck -2.7024 5.55855 0.00188935
upperneck -0.143859 7.45384 -3.6866
head 0.548071 3.70728 -1.02687
rclavicle 3.10104e-014 3.77691e-015
rhumerus 14.6474 3.32207 -86.2989
rradius 130.716
rwrist 26.4258
rhand 14.8995 0.828792
rfingers 7.12502
rthumb 39.757 -24.4701
lclavicle 3.10104e-014 3.77691e-015
lhumerus 9.62472 -14.9233 94.0592
lradius 124.152
lwrist -0.957445
lhand -3.83324 30.173
lfingers 7.12502
lthumb 21.9141 58.9519
rfemur -53.2506 7.83526 9.87766
rtibia 28.6587
rfoot -8.00937 -9.98463
rtoes -24.3523
lfemur -48.1196 2.20542 -6.07104
ltibia 28.9495
lfoot -0.526535 21.3024
ltoes -29.9409
2266
root -1.10949 17.5839 2.1887 -159.642 93.4059 -193.181
lowerback 14.3457 -4.0425 1.6526
upperback 0.411038 -4.74715 3.28925
thorax -7.45283 -2.26933 3.54165
lowerneck -2.6677 5.58254 0.115531
upperneck -0.618377 7.4693 -3.45043
head 0.390536 3.72491 -0.98151
rclavicle 6.55989e-015 1.66979e-014
rhumerus 14.803 3.14881 -86.5256
rradius 130.392
rwrist 26.5537
rhand 15.6763 1.25264
rfingers 7.12502
rthumb 40.4879 -23.8244
lclavicle 6.55989e-015 1.66979e-014
lhumerus 9.32065 -14.8289 94.1589
lradius 124.13
lwrist -2.11138
lhand -1.92936 30.5335
lfingers 7.12502
lthumb 23.7411 59.087
rfemur -53.1397 7.6813 10.3874
rtibia 29.1368
rfoot -8.29131 -10.219
rtoes -24.8512
lfemur -48.0734 1.54749 -5.27192
ltibia 28.9909
lfoot -2.1683 21.6544
ltoes -26.6711
